<svg width="128" height="128" viewBox="0 0 128 128" xmlns="http://www.w3.org/2000/svg"><svg width="128" height="128" viewBox="0 0 128 128" xmlns="http://www.w3.org/2000/svg">

  <!-- Background -->  <!-- Background -->

  <rect width="128" height="128" fill="#2c3e50" rx="10"/>  <rect width="128" height="128" fill="#2c3e50" rx="10"/>

    

  <!-- Cannon (simplified) -->  <!-- Cannon (simplified) -->

  <rect x="10" y="55" width="40" height="18" fill="#34495e" stroke="#2c3e50" stroke-width="2" rx="9"/>  <rect x="10" y="55" width="40" height="18" fill="#34495e" stroke="#2c3e50" stroke-width="2" rx="9"/>

  <circle cx="15" cy="64" r="8" fill="#34495e"/>  <circle cx="15" cy="64" r="8" fill="#34495e"/>

    

  <!-- Burnt portion (75% = up to point 95) -->  <!-- Burnt portion (75% = up to point 95) -->

  <path d="M50 64 Q60 60 70 58 Q80 56 90 60 Q95 62 95 62"   <path d="M50 64 Q60 60 70 58 Q80 56 90 60 Q95 62 95 62" 

        stroke="#2c2c2c" stroke-width="4" fill="none" stroke-linecap="round"/>        stroke="#2c2c2c" stroke-width="4" fill="none" stroke-linecap="round"/>

    

  <!-- Remaining unlit fuse (small portion) -->  <!-- Remaining unlit fuse (small portion) -->

  <path d="M95 62 Q102 63 110 62"   <path d="M95 62 Q102 63 110 62" 

        stroke="#8B4513" stroke-width="4" fill="none" stroke-linecap="round"/>        stroke="#8B4513" stroke-width="4" fill="none" stroke-linecap="round"/>

    

  <!-- Burning point with large flame -->  <!-- Burning point with large flame -->

  <circle cx="95" cy="62" r="4" fill="#FF4500"/>  <circle cx="95" cy="62" r="4" fill="#FF4500"/>

  <circle cx="95" cy="62" r="6" fill="#FF6B35" opacity="0.8"/>  <circle cx="95" cy="62" r="6" fill="#FF6B35" opacity="0.8"/>

  <circle cx="95" cy="62" r="8" fill="#FFD700" opacity="0.5"/>  <circle cx="95" cy="62" r="8" fill="#FFD700" opacity="0.5"/>

  <circle cx="95" cy="62" r="10" fill="#FFA500" opacity="0.3"/>  <circle cx="95" cy="62" r="10" fill="#FFA500" opacity="0.3"/>

    

  <!-- Large sparks -->  <!-- Large sparks -->

  <circle cx="99" cy="58" r="2" fill="#FFD700"/>  <circle cx="99" cy="58" r="2" fill="#FFD700"/>

  <circle cx="91" cy="66" r="2" fill="#FF8C00"/>  <circle cx="91" cy="66" r="2" fill="#FF8C00"/>

  <circle cx="98" cy="65" r="1.5" fill="#FFD700"/>  <circle cx="98" cy="65" r="1.5" fill="#FFD700"/>

  <circle cx="92" cy="58" r="1.5" fill="#FF4500"/>  <circle cx="92" cy="58" r="1.5" fill="#FF4500"/>

    

  <!-- Fuse end (unlit, small) -->  <!-- Fuse end (unlit, small) -->

  <circle cx="110" cy="62" r="2" fill="#654321"/>  <circle cx="110" cy="62" r="2" fill="#654321"/>

    

  <!-- Progress indicator -->  <!-- Progress indicator -->

  <text x="64" y="100" text-anchor="middle" fill="#c0392b" font-family="monospace" font-size="12" font-weight="bold">75% 🔥</text>  <text x="64" y="100" text-anchor="middle" fill="#c0392b" font-family="monospace" font-size="12" font-weight="bold">75% 🔥</text>

    

  <!-- Decorative elements -->  <!-- Decorative elements -->

  <text x="20" y="25" fill="#c0392b" font-size="16">🔸</text>  <text x="20" y="25" fill="#c0392b" font-size="16">🔸</text>

  <text x="100" y="25" fill="#e74c3c" font-size="16">🔸</text>  <text x="100" y="25" fill="#e74c3c" font-size="16">🔸</text>

    

  <!-- Danger warning -->  <!-- Danger warning -->

  <text x="64" y="25" text-anchor="middle" fill="#FFD700" font-size="12">⚠️</text>  <text x="64" y="25" text-anchor="middle" fill="#FFD700" font-size="12">⚠️</text>

</svg></svg>