<svg width="128" height="128" viewBox="0 0 128 128" xmlns="http://www.w3.org/2000/svg"><svg width="128" height="128" viewBox="0 0 128 128" xmlns="http://www.w3.org/2000/svg">

  <!-- Black flag background -->  <!-- Black flag background -->

  <rect width="128" height="128" fill="#000000"/>  <rect width="128" height="128" fill="#000000"/>

    

  <!-- Skull -->  <!-- Skull -->

  <circle cx="64" cy="48" r="18" fill="#FFFFFF"/>  <circle cx="64" cy="48" r="18" fill="#FFFFFF"/>

  <circle cx="58" cy="42" r="4" fill="#000000"/>  <circle cx="58" cy="42" r="4" fill="#000000"/>

  <circle cx="70" cy="42" r="4" fill="#000000"/>  <circle cx="70" cy="42" r="4" fill="#000000"/>

  <path d="M58 56 L64 60 L70 56" stroke="#000000" stroke-width="2" fill="none"/>  <path d="M58 56 L64 60 L70 56" stroke="#000000" stroke-width="2" fill="none"/>

    

  <!-- Crossbones -->  <!-- Crossbones -->

  <rect x="30" y="76" width="68" height="4" fill="#FFFFFF" transform="rotate(0 64 78)"/>  <rect x="30" y="76" width="68" height="4" fill="#FFFFFF" transform="rotate(0 64 78)"/>

  <rect x="30" y="76" width="68" height="4" fill="#FFFFFF" transform="rotate(90 64 78)"/>  <rect x="30" y="76" width="68" height="4" fill="#FFFFFF" transform="rotate(90 64 78)"/>

    

  <!-- Bone ends -->  <!-- Bone ends -->

  <circle cx="32" cy="78" r="6" fill="#FFFFFF"/>  <circle cx="32" cy="78" r="6" fill="#FFFFFF"/>

  <circle cx="96" cy="78" r="6" fill="#FFFFFF"/>  <circle cx="96" cy="78" r="6" fill="#FFFFFF"/>

  <circle cx="64" cy="46" r="6" fill="#FFFFFF"/>  <circle cx="64" cy="46" r="6" fill="#FFFFFF"/>

  <circle cx="64" cy="110" r="6" fill="#FFFFFF"/>  <circle cx="64" cy="110" r="6" fill="#FFFFFF"/>

    

  <!-- Pirate flag details -->  <!-- Pirate flag details -->

  <text x="64" y="20" text-anchor="middle" fill="#FFFFFF" font-family="serif" font-size="12" font-weight="bold">☠️</text>  <text x="64" y="20" text-anchor="middle" fill="#FFFFFF" font-family="serif" font-size="12" font-weight="bold">☠️</text>

</svg></svg>